<svg width="30" height="30" viewBox="0 0 30 30" fill="none" xmlns="http://www.w3.org/2000/svg">
<g clip-path="url(#clip0_863_13473)">
<rect width="30" height="30" fill="white"/>
<g clip-path="url(#clip1_863_13473)">
<path fill-rule="evenodd" clip-rule="evenodd" d="M16.084 17.6793C13.6443 17.6793 11.6667 15.6995 11.6667 13.2574C11.6667 10.8153 13.6443 8.83556 16.084 8.83556C18.5234 8.83556 20.5012 10.8153 20.5012 13.2574C20.5012 15.6995 18.5234 17.6793 16.084 17.6793ZM16.084 6.66667C14.3841 6.66667 12.8349 7.31171 11.6667 8.37038V6.95234H9.5V24.8333H11.6667V18.1445C12.8349 19.2031 14.3841 19.8482 16.084 19.8482C19.7201 19.8482 22.6678 16.8974 22.6678 13.2574C22.6678 9.61742 19.7201 6.66667 16.084 6.66667Z" fill="#281350"/>
<path fill-rule="evenodd" clip-rule="evenodd" d="M16.084 17.6793C13.6443 17.6793 11.6667 15.6995 11.6667 13.2574C11.6667 10.8153 13.6443 8.83556 16.084 8.83556C18.5234 8.83556 20.5012 10.8153 20.5012 13.2574C20.5012 15.6995 18.5234 17.6793 16.084 17.6793ZM16.084 6.66667C14.3841 6.66667 12.8349 7.31171 11.6667 8.37038V6.95234H9.5V24.8333H11.6667V18.1445C12.8349 19.2031 14.3841 19.8482 16.084 19.8482C19.7201 19.8482 22.6678 16.8974 22.6678 13.2574C22.6678 9.61742 19.7201 6.66667 16.084 6.66667Z" fill="black" fill-opacity="0.2"/>
<path fill-rule="evenodd" clip-rule="evenodd" d="M16.0839 11.5436C15.1412 11.5436 14.377 12.3078 14.377 13.2505C14.377 14.1931 15.1412 14.9575 16.0839 14.9575C17.0267 14.9575 17.7908 14.1931 17.7908 13.2505C17.7908 12.3078 17.0267 11.5436 16.0839 11.5436Z" fill="#281350"/>
<path fill-rule="evenodd" clip-rule="evenodd" d="M16.0839 11.5436C15.1412 11.5436 14.377 12.3078 14.377 13.2505C14.377 14.1931 15.1412 14.9575 16.0839 14.9575C17.0267 14.9575 17.7908 14.1931 17.7908 13.2505C17.7908 12.3078 17.0267 11.5436 16.0839 11.5436Z" fill="black" fill-opacity="0.2"/>
</g>
</g>
<defs>
<clipPath id="clip0_863_13473">
<rect width="30" height="30" rx="5" fill="white"/>
</clipPath>
<clipPath id="clip1_863_13473">
<rect width="13.1678" height="18.1667" fill="white" transform="translate(9.5 6.66667)"/>
</clipPath>
</defs>
</svg>
