<svg
    width="32"
    height="32"
    viewBox="0 0 32 32"
    fill="none"
    xmlns="http://www.w3.org/2000/svg"
>
    <g>
        <circle cx="16" cy="16" r="16" fill="#5F2EE5" />
    </g>
    <g clip-path="url(#logo-circular-pilot-clip-path)">
        <path
            fill-rule="evenodd"
            clip-rule="evenodd"
            d="M16.9395 18.3221C14.8252 18.3221 13.1112 16.6063 13.1112 14.4897C13.1112 12.3733 14.8252 10.6575 16.9395 10.6575C19.0537 10.6575 20.7677 12.3733 20.7677 14.4897C20.7677 16.6063 19.0537 18.3221 16.9395 18.3221ZM16.9395 8.77777C15.4663 8.77777 14.1236 9.33681 13.1112 10.2543V9.02536H11.2334V24.5222H13.1112V18.7252C14.1236 19.6427 15.4663 20.2018 16.9395 20.2018C20.0908 20.2018 22.6455 17.6444 22.6455 14.4897C22.6455 11.3351 20.0908 8.77777 16.9395 8.77777Z"
            fill="white"
        />
        <path
            fill-rule="evenodd"
            clip-rule="evenodd"
            d="M16.9395 13.0045C16.1226 13.0045 15.4602 13.6668 15.4602 14.4838C15.4602 15.3007 16.1226 15.9632 16.9395 15.9632C17.7566 15.9632 18.4189 15.3007 18.4189 14.4838C18.4189 13.6668 17.7566 13.0045 16.9395 13.0045Z"
            fill="white"
        />
    </g>
    <defs>
        <clipPath id="logo-circular-pilot-clip-path">
            <rect
                width="11.4121"
                height="15.7444"
                fill="white"
                transform="translate(11.2334 8.77777)"
            />
        </clipPath>
    </defs>
</svg>
