<svg xmlns="http://www.w3.org/2000/svg" width="11" height="15" viewBox="0 0 11 15" fill="none">
    <g clip-path="url(#clip0_122_11505)">
        <path
            fill-rule="evenodd"
            clip-rule="evenodd"
            d="M5.43629 9.09301C3.42193 9.09301 1.78906 7.45833 1.78906 5.44187C1.78906 3.4255 3.42193 1.79083 5.43629 1.79083C7.45055 1.79083 9.08352 3.4255 9.08352 5.44187C9.08352 7.45833 7.45055 9.09301 5.43629 9.09301ZM5.43629 0C4.03273 0 2.75356 0.532609 1.78906 1.40673V0.235878H0V15H1.78906V9.4771C2.75356 10.3512 4.03273 10.8838 5.43629 10.8838C8.43862 10.8838 10.8725 8.44743 10.8725 5.44187C10.8725 2.4364 8.43862 0 5.43629 0Z"
            fill="currentColor"
        />
        <path
            fill-rule="evenodd"
            clip-rule="evenodd"
            d="M5.43674 4.02686C4.65841 4.02686 4.02734 4.6578 4.02734 5.4362C4.02734 6.2145 4.65841 6.84565 5.43674 6.84565C6.21517 6.84565 6.84614 6.2145 6.84614 5.4362C6.84614 4.6578 6.21517 4.02686 5.43674 4.02686Z"
            fill="currentColor"
        />
    </g>
    <defs>
        <clipPath id="clip0_122_11505">
            <rect width="10.8725" height="15" fill="white" />
        </clipPath>
    </defs>
</svg>
